# xmcd
#
# Track frame offsets: 
#        150
#        23105
#        40655
#        56555
#        74985
#        91055
#        106890
#        121505
#        146495
#        167585
#
# Disc length: 2646 seconds
#
# Revision: 2
# Processed by: cddbd v1.5.2PL0 Copyright (c) Steve Scherf et al.
# Submitted via: ExactAudioCopy v0.99pb4
#
DISCID=7d0a540a
DTITLE=Jerry Jeff Walker - Hill Country Rain
DYEAR=1900
DGENRE=
TTITLE0=Rock and Roll My Baby
TTITLE1=So Bad Last Night
TTITLE2=Singin' The Dinosaur Blues
TTITLE3=Time To Stay Home
TTITLE4=Last Night I Fell In Love Again
TTITLE5=The Man He Used To Be
TTITLE6=Curly and Lil
TTITLE7=The Dutchman
TTITLE8=To The Artist
TTITLE9=Hill Country Rain
EXTD=
EXTT0=
EXTT1=
EXTT2=
EXTT3=
EXTT4=
EXTT5=
EXTT6=
EXTT7=
EXTT8=
EXTT9=
PLAYORDER=
